<?xml version="1.0" standalone="no"?>
<!DOCTYPE svg PUBLIC "-//W3C//DTD SVG 20010904//EN"
 "http://www.w3.org/TR/2001/REC-SVG-20010904/DTD/svg10.dtd">
<svg version="1.0" xmlns="http://www.w3.org/2000/svg"
 width="512.000000pt" height="512.000000pt" viewBox="0 0 512.000000 512.000000"
 preserveAspectRatio="xMidYMid meet">
<metadata>
Created by potrace 1.11, written by Peter Selinger 2001-2013
</metadata>
<g transform="translate(0.000000,512.000000) scale(0.100000,-0.100000)"
fill="#000000" stroke="none">
<path d="M0 2560 l0 -2560 2560 0 2560 0 0 2560 0 2560 -2560 0 -2560 0 0
-2560z m3925 1732 c103 -29 226 -88 292 -141 141 -113 239 -316 272 -564 18
-131 43 -117 -204 -117 l-214 0 -6 38 c-20 118 -76 236 -137 288 -47 39 -118
71 -183 83 -74 14 -534 14 -606 1 -127 -24 -245 -116 -302 -237 l-32 -68 0
-1170 0 -1170 32 -68 c78 -163 251 -261 427 -242 185 21 305 109 358 265 22
63 22 81 26 533 l3 467 -215 0 -216 0 0 210 0 210 640 0 640 0 0 -674 c0 -429
-4 -703 -11 -752 -39 -280 -179 -465 -458 -604 -42 -21 -110 -49 -151 -61 -73
-23 -86 -23 -625 -27 -611 -3 -639 -1 -785 61 -246 106 -428 317 -502 582
l-23 80 0 1190 0 1190 23 80 c95 337 356 578 692 638 14 3 286 4 605 3 566 -2
582 -2 660 -24z"/>
</g>
</svg>
